<?xml version="1.0" encoding="utf-8"?>
<!-- Generator: Adobe Illustrator 26.0.2, SVG Export Plug-In . SVG Version: 6.00 Build 0)  -->
<svg version="1.1" id="レイヤー_1" xmlns="http://www.w3.org/2000/svg" xmlns:xlink="http://www.w3.org/1999/xlink" x="0px"
	 y="0px" viewBox="0 0 48.6 48.8" style="enable-background:new 0 0 48.6 48.8;" xml:space="preserve">
<style type="text/css">
	.st0{fill:url(#パス_974_00000102509164806699076060000014545760651369083290_);}
	.st1{fill:url(#パス_975_00000165931153375924760200000018035473942088812697_);}
	.st2{fill:url(#パス_976_00000039837275178810040250000011708289153224648888_);}
	.st3{fill:url(#パス_977_00000170965947525078928250000009146623692042795193_);}
	.st4{fill:url(#パス_978_00000108306857279314433160000012630229937939025795_);}
	.st5{fill:url(#パス_979_00000021112146397434775520000014537852468362062722_);}
	.st6{fill:url(#パス_980_00000029735479526422928220000010027403980314117287_);}
	.st7{fill:url(#パス_981_00000050636492001540897120000000596386931655653557_);}
	.st8{fill:url(#パス_982_00000169529186164395175060000016907746010165986691_);}
	.st9{fill:url(#パス_983_00000066482216524405192780000005106890202508184461_);}
	.st10{fill:url(#パス_984_00000076595428948416257020000016589830213950328733_);}
	.st11{fill:url(#パス_985_00000131348144460292396940000010511865540919929240_);}
	.st12{fill:url(#パス_986_00000140706366114534999280000016405703051850005417_);}
	.st13{fill:url(#パス_987_00000057855187334836714760000017063633592604126653_);}
	.st14{fill:url(#パス_988_00000098181384596011736180000002345557733002865079_);}
	.st15{fill:url(#パス_989_00000136391245473935538940000005595632104286675875_);}
	.st16{fill:url(#パス_990_00000116927532569544756440000003355620373209168310_);}
	.st17{fill:url(#パス_991_00000067223121268522820340000008348288725513436578_);}
	.st18{fill:url(#パス_992_00000031208021313774786610000015528377536346735234_);}
	.st19{fill:url(#パス_993_00000031927465656415807200000010918891391543940484_);}
	.st20{fill:url(#パス_994_00000058559397960584494520000017620442610412763269_);}
	.st21{fill:url(#パス_995_00000080893880374796384150000009575593868893236627_);}
	.st22{fill:url(#パス_996_00000121245929956737891450000005238249236239560096_);}
	.st23{fill:url(#パス_997_00000011027788090077640590000016751248194525715604_);}
	.st24{fill:url(#パス_998_00000070081217543319751240000013199256426268520879_);}
	.st25{fill:url(#パス_999_00000149369327182697086720000008042666057068396734_);}
	.st26{fill:url(#パス_1000_00000059288004755829145670000008223622729836694690_);}
	.st27{fill:url(#パス_1001_00000140008491778472481490000007512966608740309406_);}
	.st28{fill:url(#パス_1002_00000168802305831368305270000002737436316526894253_);}
	.st29{fill:url(#パス_1003_00000094615699503012136620000006435999511190031249_);}
	.st30{fill:url(#パス_1004_00000155114173003545500770000010012028383878878883_);}
	.st31{fill:url(#パス_1005_00000183221459253891798200000004450618771000782736_);}
	.st32{fill:url(#パス_1006_00000026863896002778074210000015111913859472131996_);}
	.st33{fill:url(#パス_1007_00000077319900579958909420000011751428458174823825_);}
	.st34{fill:url(#パス_1008_00000166660138269756564820000011277931013849414324_);}
	.st35{fill:url(#パス_1009_00000001622542491950912890000007768277573151434936_);}
	.st36{fill:url(#パス_1010_00000176729017852867289320000002252549000914402737_);}
	.st37{fill:url(#パス_1011_00000180360312367006020880000011821681568747332503_);}
</style>
<linearGradient id="パス_974_00000117648074638303316650000000930721261738428806_" gradientUnits="userSpaceOnUse" x1="-1186.6022" y1="1736.629" x2="-1185.6022" y2="1736.629" gradientTransform="matrix(19.032 0 0 -19.032 22611.6758 33089.1484)">
	<stop  offset="0" style="stop-color:#1D499D"/>
	<stop  offset="0.136" style="stop-color:#1B51A2"/>
	<stop  offset="0.37" style="stop-color:#1C6BA7"/>
	<stop  offset="0.673" style="stop-color:#1996AE"/>
	<stop  offset="1" style="stop-color:#45BAAD"/>
</linearGradient>
<path id="パス_974" style="fill:url(#パス_974_00000117648074638303316650000000930721261738428806_);" d="M30.1,46.8l16.9-16.9
	c0.1-0.6,0.3-1.2,0.4-1.8l-19,19C28.9,47.1,29.5,46.9,30.1,46.8z"/>
<linearGradient id="パス_975_00000002363001064254591080000008352683167852191371_" gradientUnits="userSpaceOnUse" x1="-1192.6818" y1="1745.4558" x2="-1191.6818" y2="1745.4558" gradientTransform="matrix(32.965 0 0 -32.964 39326.9727 57563.7852)">
	<stop  offset="0" style="stop-color:#1D499D"/>
	<stop  offset="0.136" style="stop-color:#1B51A2"/>
	<stop  offset="0.37" style="stop-color:#1C6BA7"/>
	<stop  offset="0.673" style="stop-color:#1996AE"/>
	<stop  offset="1" style="stop-color:#45BAAD"/>
</linearGradient>
<path id="パス_975" style="fill:url(#パス_975_00000002363001064254591080000008352683167852191371_);" d="M42.8,10.1L10.3,42.7
	c0.2,0.1,0.4,0.3,0.6,0.4l32.4-32.4C43.1,10.5,42.9,10.3,42.8,10.1z"/>
<linearGradient id="パス_976_00000183220297163825205960000015528752185290982052_" gradientUnits="userSpaceOnUse" x1="-1192.6099" y1="1745.3518" x2="-1191.6099" y2="1745.3518" gradientTransform="matrix(32.682 0 0 -32.6819 38988.1445 57068.8438)">
	<stop  offset="0" style="stop-color:#1D499D"/>
	<stop  offset="0.136" style="stop-color:#1B51A2"/>
	<stop  offset="0.37" style="stop-color:#1C6BA7"/>
	<stop  offset="0.673" style="stop-color:#1996AE"/>
	<stop  offset="1" style="stop-color:#45BAAD"/>
</linearGradient>
<path id="パス_976" style="fill:url(#パス_976_00000183220297163825205960000015528752185290982052_);" d="M43.5,11.1L11.3,43.4
	c0.2,0.1,0.4,0.3,0.6,0.4l32.1-32.1C43.8,11.5,43.7,11.3,43.5,11.1z"/>
<linearGradient id="パス_977_00000077318732994895681060000010141606611605688971_" gradientUnits="userSpaceOnUse" x1="-1192.5105" y1="1745.208" x2="-1191.5105" y2="1745.208" gradientTransform="matrix(32.299 0 0 -32.3 38529.1523 56398.6211)">
	<stop  offset="0" style="stop-color:#1D499D"/>
	<stop  offset="0.136" style="stop-color:#1B51A2"/>
	<stop  offset="0.37" style="stop-color:#1C6BA7"/>
	<stop  offset="0.673" style="stop-color:#1996AE"/>
	<stop  offset="1" style="stop-color:#45BAAD"/>
</linearGradient>
<path id="パス_977" style="fill:url(#パス_977_00000077318732994895681060000010141606611605688971_);" d="M44.2,12.2L12.3,44.1
	c0.2,0.1,0.4,0.3,0.7,0.4l31.6-31.6C44.5,12.6,44.4,12.4,44.2,12.2z"/>
<linearGradient id="パス_978_00000118377655911485059440000005758524632271328663_" gradientUnits="userSpaceOnUse" x1="-1188.1064" y1="1738.8124" x2="-1187.1064" y2="1738.8124" gradientTransform="matrix(21.2549 0 0 -21.2539 25279.373 36993.3438)">
	<stop  offset="0" style="stop-color:#1D499D"/>
	<stop  offset="0.136" style="stop-color:#1B51A2"/>
	<stop  offset="0.37" style="stop-color:#1C6BA7"/>
	<stop  offset="0.673" style="stop-color:#1996AE"/>
	<stop  offset="1" style="stop-color:#45BAAD"/>
</linearGradient>
<path id="パス_978" style="fill:url(#パス_978_00000118377655911485059440000005758524632271328663_);" d="M27.9,47.2l19.5-19.5
	c0.1-0.5,0.1-1,0.2-1.6L26.3,47.4C26.8,47.4,27.3,47.3,27.9,47.2z"/>
<linearGradient id="パス_979_00000114776994617508270660000003646353611574195358_" gradientUnits="userSpaceOnUse" x1="-1192.381" y1="1745.02" x2="-1191.381" y2="1745.02" gradientTransform="matrix(31.813 0 0 -31.814 37946.6133 55545.1758)">
	<stop  offset="0" style="stop-color:#1D499D"/>
	<stop  offset="0.136" style="stop-color:#1B51A2"/>
	<stop  offset="0.37" style="stop-color:#1C6BA7"/>
	<stop  offset="0.673" style="stop-color:#1996AE"/>
	<stop  offset="1" style="stop-color:#45BAAD"/>
</linearGradient>
<path id="パス_979" style="fill:url(#パス_979_00000114776994617508270660000003646353611574195358_);" d="M44.9,13.3L13.4,44.7
	c0.2,0.1,0.5,0.3,0.7,0.4L45.2,14C45.1,13.7,45,13.5,44.9,13.3z"/>
<linearGradient id="パス_980_00000182495340674271451680000002906284654266323840_" gradientUnits="userSpaceOnUse" x1="-1190.576" y1="1742.3988" x2="-1189.576" y2="1742.3988" gradientTransform="matrix(26.2971 0 0 -26.297 31329.9688 45854.1094)">
	<stop  offset="0" style="stop-color:#1D499D"/>
	<stop  offset="0.136" style="stop-color:#1B51A2"/>
	<stop  offset="0.37" style="stop-color:#1C6BA7"/>
	<stop  offset="0.673" style="stop-color:#1996AE"/>
	<stop  offset="1" style="stop-color:#45BAAD"/>
</linearGradient>
<path id="パス_980" style="fill:url(#パス_980_00000182495340674271451680000002906284654266323840_);" d="M47.4,21.1L21.2,47.3
	c0.4,0.1,0.8,0.1,1.2,0.1l25.1-25.1C47.5,21.9,47.5,21.5,47.4,21.1z"/>
<linearGradient id="パス_981_00000170961614674520215350000016285039748643632284_" gradientUnits="userSpaceOnUse" x1="-1189.9534" y1="1741.4948" x2="-1188.9534" y2="1741.4948" gradientTransform="matrix(24.813 0 0 -24.813 29549.1191 43246.7695)">
	<stop  offset="0" style="stop-color:#1D499D"/>
	<stop  offset="0.136" style="stop-color:#1B51A2"/>
	<stop  offset="0.37" style="stop-color:#1C6BA7"/>
	<stop  offset="0.673" style="stop-color:#1996AE"/>
	<stop  offset="1" style="stop-color:#45BAAD"/>
</linearGradient>
<path id="パス_981" style="fill:url(#パス_981_00000170961614674520215350000016285039748643632284_);" d="M47.6,22.7L22.8,47.4
	c0.4,0,0.8,0,1.3,0.1l23.5-23.5C47.6,23.5,47.6,23.1,47.6,22.7z"/>
<linearGradient id="パス_982_00000057122453378253349630000006593784546116146058_" gradientUnits="userSpaceOnUse" x1="-1164.8896" y1="1705.1101" x2="-1163.8896" y2="1705.1101" gradientTransform="matrix(7.584 0 0 -7.585 8871.1211 12973.4512)">
	<stop  offset="0" style="stop-color:#1D499D"/>
	<stop  offset="0.136" style="stop-color:#1B51A2"/>
	<stop  offset="0.37" style="stop-color:#1C6BA7"/>
	<stop  offset="0.673" style="stop-color:#1996AE"/>
	<stop  offset="1" style="stop-color:#45BAAD"/>
</linearGradient>
<path id="パス_982" style="fill:url(#パス_982_00000057122453378253349630000006593784546116146058_);" d="M40.8,40.7
	c1.3-1.3,2.4-2.7,3.4-4.2l-7.6,7.6C38.2,43.1,39.6,42,40.8,40.7z"/>
<linearGradient id="パス_983_00000134953097804013733860000002853292966119595707_" gradientUnits="userSpaceOnUse" x1="-1179.6921" y1="1726.5958" x2="-1178.6921" y2="1726.5958" gradientTransform="matrix(12.856 0 0 -12.856 15199.1768 22236.4355)">
	<stop  offset="0" style="stop-color:#1D499D"/>
	<stop  offset="0.136" style="stop-color:#1B51A2"/>
	<stop  offset="0.37" style="stop-color:#1C6BA7"/>
	<stop  offset="0.673" style="stop-color:#1996AE"/>
	<stop  offset="1" style="stop-color:#45BAAD"/>
</linearGradient>
<path id="パス_983" style="fill:url(#パス_983_00000134953097804013733860000002853292966119595707_);" d="M36,44.4l8.6-8.6
	c0.5-0.9,1-1.9,1.4-2.9L33.1,45.8C34.1,45.4,35.1,45,36,44.4z"/>
<linearGradient id="パス_984_00000165942981955112191440000008360196744164451205_" gradientUnits="userSpaceOnUse" x1="-1191.0624" y1="1743.1045" x2="-1190.0624" y2="1743.1045" gradientTransform="matrix(27.5859 0 0 -27.585 32876.3438 48116.8867)">
	<stop  offset="0" style="stop-color:#1D499D"/>
	<stop  offset="0.136" style="stop-color:#1B51A2"/>
	<stop  offset="0.37" style="stop-color:#1C6BA7"/>
	<stop  offset="0.673" style="stop-color:#1996AE"/>
	<stop  offset="1" style="stop-color:#45BAAD"/>
</linearGradient>
<path id="パス_984" style="fill:url(#パス_984_00000165942981955112191440000008360196744164451205_);" d="M47.2,19.6L19.8,47
	c0.4,0.1,0.7,0.1,1.1,0.2l26.5-26.5C47.3,20.3,47.2,20,47.2,19.6z"/>
<linearGradient id="パス_985_00000077302968156271274960000010887087142256933048_" gradientUnits="userSpaceOnUse" x1="-1192.0129" y1="1744.4855" x2="-1191.0129" y2="1744.4855" gradientTransform="matrix(30.5079 0 0 -30.5089 36381.6211 53253.2344)">
	<stop  offset="0" style="stop-color:#1D499D"/>
	<stop  offset="0.136" style="stop-color:#1B51A2"/>
	<stop  offset="0.37" style="stop-color:#1C6BA7"/>
	<stop  offset="0.673" style="stop-color:#1996AE"/>
	<stop  offset="1" style="stop-color:#45BAAD"/>
</linearGradient>
<path id="パス_985" style="fill:url(#パス_985_00000077302968156271274960000010887087142256933048_);" d="M46,15.6L15.8,45.8
	c0.3,0.1,0.6,0.2,0.8,0.3l29.7-29.7C46.2,16.2,46.1,15.9,46,15.6z"/>
<linearGradient id="パス_986_00000078042733677861541320000011003579429051328665_" gradientUnits="userSpaceOnUse" x1="-1192.2173" y1="1744.7819" x2="-1191.2173" y2="1744.7819" gradientTransform="matrix(31.219 0 0 -31.219 37234.3867 54500.3633)">
	<stop  offset="0" style="stop-color:#1D499D"/>
	<stop  offset="0.136" style="stop-color:#1B51A2"/>
	<stop  offset="0.37" style="stop-color:#1C6BA7"/>
	<stop  offset="0.673" style="stop-color:#1996AE"/>
	<stop  offset="1" style="stop-color:#45BAAD"/>
</linearGradient>
<path id="パス_986" style="fill:url(#パス_986_00000078042733677861541320000011003579429051328665_);" d="M45.4,14.4L14.6,45.3
	c0.3,0.1,0.5,0.2,0.8,0.3l30.4-30.4C45.7,14.9,45.6,14.7,45.4,14.4z"/>
<linearGradient id="パス_987_00000155850370530472829240000010629691497387756423_" gradientUnits="userSpaceOnUse" x1="-1191.7607" y1="1744.119" x2="-1190.7607" y2="1744.119" gradientTransform="matrix(29.674 0 0 -29.6741 35381.2852 51786.8438)">
	<stop  offset="0" style="stop-color:#1D499D"/>
	<stop  offset="0.136" style="stop-color:#1B51A2"/>
	<stop  offset="0.37" style="stop-color:#1C6BA7"/>
	<stop  offset="0.673" style="stop-color:#1996AE"/>
	<stop  offset="1" style="stop-color:#45BAAD"/>
</linearGradient>
<path id="パス_987" style="fill:url(#パス_987_00000155850370530472829240000010629691497387756423_);" d="M46.4,16.9L17,46.3
	c0.3,0.1,0.6,0.2,0.9,0.3l28.8-28.8C46.6,17.5,46.5,17.2,46.4,16.9z"/>
<linearGradient id="パス_988_00000092450291752222427220000006649122205472554917_" gradientUnits="userSpaceOnUse" x1="-1191.449" y1="1743.6663" x2="-1190.449" y2="1743.6663" gradientTransform="matrix(28.704 0 0 -28.704 34217.6953 50082.7383)">
	<stop  offset="0" style="stop-color:#1D499D"/>
	<stop  offset="0.136" style="stop-color:#1B51A2"/>
	<stop  offset="0.37" style="stop-color:#1C6BA7"/>
	<stop  offset="0.673" style="stop-color:#1996AE"/>
	<stop  offset="1" style="stop-color:#45BAAD"/>
</linearGradient>
<path id="パス_988" style="fill:url(#パス_988_00000092450291752222427220000006649122205472554917_);" d="M46.8,18.2L18.4,46.7
	c0.3,0.1,0.7,0.2,1,0.2l27.7-27.7C47,18.9,46.9,18.5,46.8,18.2z"/>
<linearGradient id="パス_989_00000013171002821711679030000010375642689777885106_" gradientUnits="userSpaceOnUse" x1="-1189.1542" y1="1740.3345" x2="-1188.1542" y2="1740.3345" gradientTransform="matrix(23.137 0 0 -23.1371 27537.9141 40302.1875)">
	<stop  offset="0" style="stop-color:#1D499D"/>
	<stop  offset="0.136" style="stop-color:#1B51A2"/>
	<stop  offset="0.37" style="stop-color:#1C6BA7"/>
	<stop  offset="0.673" style="stop-color:#1996AE"/>
	<stop  offset="1" style="stop-color:#45BAAD"/>
</linearGradient>
<path id="パス_989" style="fill:url(#パス_989_00000013171002821711679030000010375642689777885106_);" d="M47.6,25.7
	c0-0.5,0-0.9,0-1.4L24.5,47.5c0.5,0,0.9,0,1.4,0L47.6,25.7z"/>
<linearGradient id="パス_990_00000173128296196497405550000003092610625975251869_" gradientUnits="userSpaceOnUse" x1="-1184.3456" y1="1733.3539" x2="-1183.3456" y2="1733.3539" gradientTransform="matrix(16.451 0 0 -16.452 19485.7578 28527.293)">
	<stop  offset="0" style="stop-color:#1D499D"/>
	<stop  offset="0.136" style="stop-color:#1B51A2"/>
	<stop  offset="0.37" style="stop-color:#1C6BA7"/>
	<stop  offset="0.673" style="stop-color:#1996AE"/>
	<stop  offset="1" style="stop-color:#45BAAD"/>
</linearGradient>
<path id="パス_990" style="fill:url(#パス_990_00000173128296196497405550000003092610625975251869_);" d="M17.9,2L2.2,17.8
	C2.1,18,2.1,18.1,2,18.3L18.5,1.9C18.3,1.9,18.1,2,17.9,2z"/>
<linearGradient id="パス_991_00000124869122457972124480000012532068748109294253_" gradientUnits="userSpaceOnUse" x1="-1179.8353" y1="1726.8038" x2="-1178.8353" y2="1726.8038" gradientTransform="matrix(12.943 0 0 -12.943 15273.502 22359.2363)">
	<stop  offset="0" style="stop-color:#1D499D"/>
	<stop  offset="0.136" style="stop-color:#1B51A2"/>
	<stop  offset="0.37" style="stop-color:#1C6BA7"/>
	<stop  offset="0.673" style="stop-color:#1996AE"/>
	<stop  offset="1" style="stop-color:#45BAAD"/>
</linearGradient>
<path id="パス_991" style="fill:url(#パス_991_00000124869122457972124480000012532068748109294253_);" d="M15.2,3l-12,12
	c-0.1,0.2-0.2,0.4-0.3,0.6L15.8,2.8C15.6,2.8,15.4,2.9,15.2,3z"/>
<linearGradient id="パス_992_00000006708125188721050200000009190163391292641923_" gradientUnits="userSpaceOnUse" x1="-1191.4668" y1="1743.6927" x2="-1190.4668" y2="1743.6927" gradientTransform="matrix(28.7579 0 0 -28.759 34266.1172 50163.1445)">
	<stop  offset="0" style="stop-color:#1D499D"/>
	<stop  offset="0.136" style="stop-color:#1B51A2"/>
	<stop  offset="0.37" style="stop-color:#1C6BA7"/>
	<stop  offset="0.673" style="stop-color:#1996AE"/>
	<stop  offset="1" style="stop-color:#45BAAD"/>
</linearGradient>
<path id="パス_992" style="fill:url(#パス_992_00000006708125188721050200000009190163391292641923_);" d="M30.3,1.8L2,30.1
	c0,0.2,0.1,0.3,0.1,0.5L30.7,2C30.6,1.9,30.4,1.9,30.3,1.8z"/>
<linearGradient id="パス_993_00000150072070602156246880000001073482946886760889_" gradientUnits="userSpaceOnUse" x1="-1191.0897" y1="1743.1442" x2="-1190.0897" y2="1743.1442" gradientTransform="matrix(27.6619 0 0 -27.661 32949.5078 48232.4844)">
	<stop  offset="0" style="stop-color:#1D499D"/>
	<stop  offset="0.136" style="stop-color:#1B51A2"/>
	<stop  offset="0.37" style="stop-color:#1C6BA7"/>
	<stop  offset="0.673" style="stop-color:#1996AE"/>
	<stop  offset="1" style="stop-color:#45BAAD"/>
</linearGradient>
<path id="パス_993" style="fill:url(#パス_993_00000150072070602156246880000001073482946886760889_);" d="M28.8,1.5L1.7,28.7
	c0,0.2,0.1,0.3,0.1,0.5L29.3,1.6C29.2,1.6,29,1.6,28.8,1.5z"/>
<linearGradient id="パス_994_00000059996647285595660410000008407552944006311324_" gradientUnits="userSpaceOnUse" x1="-1165.0038" y1="1705.262" x2="-1164.0038" y2="1705.262" gradientTransform="matrix(7.608 0 0 -7.607 8868.0742 12980.2598)">
	<stop  offset="0" style="stop-color:#1D499D"/>
	<stop  offset="0.136" style="stop-color:#1B51A2"/>
	<stop  offset="0.37" style="stop-color:#1C6BA7"/>
	<stop  offset="0.673" style="stop-color:#1996AE"/>
	<stop  offset="1" style="stop-color:#45BAAD"/>
</linearGradient>
<path id="パス_994" style="fill:url(#パス_994_00000059996647285595660410000008407552944006311324_);" d="M11.3,5.2l-6,6
	c-0.2,0.3-0.4,0.6-0.6,1l7.6-7.6C12,4.7,11.6,5,11.3,5.2z"/>
<linearGradient id="パス_995_00000149381928410141541420000005492560791688879802_" gradientUnits="userSpaceOnUse" x1="-1192.0215" y1="1744.4962" x2="-1191.0215" y2="1744.4962" gradientTransform="matrix(30.537 0 0 -30.534 36403.5781 53284.3984)">
	<stop  offset="0" style="stop-color:#1D499D"/>
	<stop  offset="0.136" style="stop-color:#1B51A2"/>
	<stop  offset="0.37" style="stop-color:#1C6BA7"/>
	<stop  offset="0.673" style="stop-color:#1996AE"/>
	<stop  offset="1" style="stop-color:#45BAAD"/>
</linearGradient>
<path id="パス_995" style="fill:url(#パス_995_00000149381928410141541420000005492560791688879802_);" d="M32.9,2.7l-30,30
	C2.9,32.9,3,33.1,3,33.2L33.4,2.9C33.2,2.8,33,2.8,32.9,2.7z"/>
<linearGradient id="パス_996_00000116940987017833626360000005184293133253614766_" gradientUnits="userSpaceOnUse" x1="-1191.7726" y1="1744.1361" x2="-1190.7726" y2="1744.1361" gradientTransform="matrix(29.712 0 0 -29.712 35412.3672 51838.8203)">
	<stop  offset="0" style="stop-color:#1D499D"/>
	<stop  offset="0.136" style="stop-color:#1B51A2"/>
	<stop  offset="0.37" style="stop-color:#1C6BA7"/>
	<stop  offset="0.673" style="stop-color:#1996AE"/>
	<stop  offset="1" style="stop-color:#45BAAD"/>
</linearGradient>
<path id="パス_996" style="fill:url(#パス_996_00000116940987017833626360000005184293133253614766_);" d="M31.6,2.2L2.4,31.5
	c0.1,0.2,0.1,0.3,0.2,0.5L32.1,2.4C31.9,2.3,31.8,2.3,31.6,2.2z"/>
<linearGradient id="パス_997_00000043418314607660474440000015267113232517455031_" gradientUnits="userSpaceOnUse" x1="-1186.7073" y1="1736.7815" x2="-1185.7073" y2="1736.7815" gradientTransform="matrix(19.1721 0 0 -19.172 22753.1719 33308.5625)">
	<stop  offset="0" style="stop-color:#1D499D"/>
	<stop  offset="0.136" style="stop-color:#1B51A2"/>
	<stop  offset="0.37" style="stop-color:#1C6BA7"/>
	<stop  offset="0.673" style="stop-color:#1996AE"/>
	<stop  offset="1" style="stop-color:#45BAAD"/>
</linearGradient>
<path id="パス_997" style="fill:url(#パス_997_00000043418314607660474440000015267113232517455031_);" d="M20.2,1.5L1.6,20.1
	c0,0.2-0.1,0.3-0.1,0.5L20.7,1.4C20.6,1.4,20.4,1.5,20.2,1.5z"/>
<linearGradient id="パス_998_00000022547222476462651980000006390396839662985129_" gradientUnits="userSpaceOnUse" x1="-1188.1986" y1="1738.947" x2="-1187.1986" y2="1738.947" gradientTransform="matrix(21.408 0 0 -21.408 25438.2969 37239.2852)">
	<stop  offset="0" style="stop-color:#1D499D"/>
	<stop  offset="0.136" style="stop-color:#1B51A2"/>
	<stop  offset="0.37" style="stop-color:#1C6BA7"/>
	<stop  offset="0.673" style="stop-color:#1996AE"/>
	<stop  offset="1" style="stop-color:#45BAAD"/>
</linearGradient>
<path id="パス_998" style="fill:url(#パス_998_00000022547222476462651980000006390396839662985129_);" d="M22.2,1.2L1.4,22.1
	c0,0.2,0,0.3,0,0.5L22.7,1.2C22.6,1.2,22.4,1.2,22.2,1.2z"/>
<linearGradient id="パス_999_00000109016031592035171250000013385840825369302176_" gradientUnits="userSpaceOnUse" x1="-1189.2369" y1="1740.4561" x2="-1188.2369" y2="1740.4561" gradientTransform="matrix(23.3 0 0 -23.302 27710.457 40568.8711)">
	<stop  offset="0" style="stop-color:#1D499D"/>
	<stop  offset="0.136" style="stop-color:#1B51A2"/>
	<stop  offset="0.37" style="stop-color:#1C6BA7"/>
	<stop  offset="0.673" style="stop-color:#1996AE"/>
	<stop  offset="1" style="stop-color:#45BAAD"/>
</linearGradient>
<path id="パス_999" style="fill:url(#パス_999_00000109016031592035171250000013385840825369302176_);" d="M24,1.1L1.2,23.9
	c0,0.2,0,0.3,0,0.5L24.5,1.1C24.4,1.1,24.2,1.1,24,1.1z"/>
<linearGradient id="パス_1000_00000078755469583597114280000018333004490262744478_" gradientUnits="userSpaceOnUse" x1="-1190.6178" y1="1742.4601" x2="-1189.6178" y2="1742.4601" gradientTransform="matrix(26.4031 0 0 -26.404 31437.4023 46022.3906)">
	<stop  offset="0" style="stop-color:#1D499D"/>
	<stop  offset="0.136" style="stop-color:#1B51A2"/>
	<stop  offset="0.37" style="stop-color:#1C6BA7"/>
	<stop  offset="0.673" style="stop-color:#1996AE"/>
	<stop  offset="1" style="stop-color:#45BAAD"/>
</linearGradient>
<path id="パス_1000" style="fill:url(#パス_1000_00000078755469583597114280000018333004490262744478_);" d="M27.3,1.3L1.4,27.2
	c0,0.2,0,0.3,0.1,0.5L27.8,1.4C27.7,1.3,27.5,1.3,27.3,1.3z"/>
<linearGradient id="パス_1001_00000036953660616106516170000003627347726019181990_" gradientUnits="userSpaceOnUse" x1="-1192.2218" y1="1744.7888" x2="-1191.2218" y2="1744.7888" gradientTransform="matrix(31.235 0 0 -31.236 37242.3789 54518.9805)">
	<stop  offset="0" style="stop-color:#1D499D"/>
	<stop  offset="0.136" style="stop-color:#1B51A2"/>
	<stop  offset="0.37" style="stop-color:#1C6BA7"/>
	<stop  offset="0.673" style="stop-color:#1996AE"/>
	<stop  offset="1" style="stop-color:#45BAAD"/>
</linearGradient>
<path id="パス_1001" style="fill:url(#パス_1001_00000036953660616106516170000003627347726019181990_);" d="M34.1,3.2L3.4,34
	c0.1,0.2,0.2,0.3,0.2,0.5l31-31C34.4,3.4,34.3,3.3,34.1,3.2z"/>
<linearGradient id="パス_1002_00000057867631442891977780000006962862668815701935_" gradientUnits="userSpaceOnUse" x1="-1190.0184" y1="1741.5924" x2="-1189.0184" y2="1741.5924" gradientTransform="matrix(24.96 0 0 -24.965 29704.1719 43492.5273)">
	<stop  offset="0" style="stop-color:#1D499D"/>
	<stop  offset="0.136" style="stop-color:#1B51A2"/>
	<stop  offset="0.37" style="stop-color:#1C6BA7"/>
	<stop  offset="0.673" style="stop-color:#1996AE"/>
	<stop  offset="1" style="stop-color:#45BAAD"/>
</linearGradient>
<path id="パス_1002" style="fill:url(#パス_1002_00000057867631442891977780000006962862668815701935_);" d="M25.8,1.1L1.3,25.6
	c0,0.2,0,0.3,0,0.5L26.2,1.2C26.1,1.2,25.9,1.2,25.8,1.1z"/>
<linearGradient id="パス_1003_00000057135011720260968610000018384052554450439075_" gradientUnits="userSpaceOnUse" x1="-1192.5126" y1="1745.2098" x2="-1191.5126" y2="1745.2098" gradientTransform="matrix(32.307 0 0 -32.3051 38531.0625 56399.6562)">
	<stop  offset="0" style="stop-color:#1D499D"/>
	<stop  offset="0.136" style="stop-color:#1B51A2"/>
	<stop  offset="0.37" style="stop-color:#1C6BA7"/>
	<stop  offset="0.673" style="stop-color:#1996AE"/>
	<stop  offset="1" style="stop-color:#45BAAD"/>
</linearGradient>
<path id="パス_1003" style="fill:url(#パス_1003_00000057135011720260968610000018384052554450439075_);" d="M36.4,4.4L4.5,36.2
	c0.1,0.2,0.2,0.3,0.3,0.5l32-32C36.7,4.6,36.5,4.5,36.4,4.4z"/>
<linearGradient id="パス_1004_00000135673448379058789240000000592784589099009450_" gradientUnits="userSpaceOnUse" x1="-1192.683" y1="1745.4562" x2="-1191.683" y2="1745.4562" gradientTransform="matrix(32.97 0 0 -32.965 39328.6719 57561.1914)">
	<stop  offset="0" style="stop-color:#1D499D"/>
	<stop  offset="0.136" style="stop-color:#1B51A2"/>
	<stop  offset="0.37" style="stop-color:#1C6BA7"/>
	<stop  offset="0.673" style="stop-color:#1996AE"/>
	<stop  offset="1" style="stop-color:#45BAAD"/>
</linearGradient>
<path id="パス_1004" style="fill:url(#パス_1004_00000135673448379058789240000000592784589099009450_);" d="M38.4,5.8L5.9,38.3
	c0.1,0.2,0.2,0.3,0.4,0.5L38.9,6.2C38.8,6,38.6,5.9,38.4,5.8z"/>
<linearGradient id="パス_1005_00000058568312654745906680000015302616545153862030_" gradientUnits="userSpaceOnUse" x1="-1192.7283" y1="1745.5238" x2="-1191.7283" y2="1745.5238" gradientTransform="matrix(33.151 0 0 -33.151 39546.8555 57889.0117)">
	<stop  offset="0" style="stop-color:#1D499D"/>
	<stop  offset="0.136" style="stop-color:#1B51A2"/>
	<stop  offset="0.37" style="stop-color:#1C6BA7"/>
	<stop  offset="0.673" style="stop-color:#1996AE"/>
	<stop  offset="1" style="stop-color:#45BAAD"/>
</linearGradient>
<path id="パス_1005" style="fill:url(#パス_1005_00000058568312654745906680000015302616545153862030_);" d="M39.4,6.6L6.7,39.3
	c0.1,0.2,0.3,0.3,0.4,0.5L39.9,7C39.7,6.8,39.6,6.7,39.4,6.6z"/>
<linearGradient id="パス_1006_00000155855831310693652810000010153636741772417442_" gradientUnits="userSpaceOnUse" x1="-1192.752" y1="1745.557" x2="-1191.752" y2="1745.557" gradientTransform="matrix(33.2461 0 0 -33.243 39661.8789 58051.6406)">
	<stop  offset="0" style="stop-color:#1D499D"/>
	<stop  offset="0.136" style="stop-color:#1B51A2"/>
	<stop  offset="0.37" style="stop-color:#1C6BA7"/>
	<stop  offset="0.673" style="stop-color:#1996AE"/>
	<stop  offset="1" style="stop-color:#45BAAD"/>
</linearGradient>
<path id="パス_1006" style="fill:url(#パス_1006_00000155855831310693652810000010153636741772417442_);" d="M40.3,7.4L7.5,40.2
	c0.1,0.2,0.3,0.3,0.4,0.5L40.8,7.8C40.6,7.7,40.5,7.5,40.3,7.4z"/>
<linearGradient id="パス_1007_00000177482540657804467260000013287208020884254370_" gradientUnits="userSpaceOnUse" x1="-1192.7511" y1="1745.557" x2="-1191.7511" y2="1745.557" gradientTransform="matrix(33.2429 0 0 -33.243 39658.9297 58052.5039)">
	<stop  offset="0" style="stop-color:#1D499D"/>
	<stop  offset="0.136" style="stop-color:#1B51A2"/>
	<stop  offset="0.37" style="stop-color:#1C6BA7"/>
	<stop  offset="0.673" style="stop-color:#1996AE"/>
	<stop  offset="1" style="stop-color:#45BAAD"/>
</linearGradient>
<path id="パス_1007" style="fill:url(#パス_1007_00000177482540657804467260000013287208020884254370_);" d="M41.2,8.3L8.4,41
	c0.2,0.2,0.3,0.3,0.5,0.5L41.6,8.7C41.5,8.6,41.3,8.4,41.2,8.3z"/>
<linearGradient id="パス_1008_00000076575496817748436290000001686304957880707972_" gradientUnits="userSpaceOnUse" x1="-1184.2252" y1="1733.1779" x2="-1183.2252" y2="1733.1779" gradientTransform="matrix(16.333 0 0 -16.333 19372.4629 28346.5312)">
	<stop  offset="0" style="stop-color:#1D499D"/>
	<stop  offset="0.136" style="stop-color:#1B51A2"/>
	<stop  offset="0.37" style="stop-color:#1C6BA7"/>
	<stop  offset="0.673" style="stop-color:#1996AE"/>
	<stop  offset="1" style="stop-color:#45BAAD"/>
</linearGradient>
<path id="パス_1008" style="fill:url(#パス_1008_00000076575496817748436290000001686304957880707972_);" d="M32.6,46l13.5-13.5
	c0.3-0.7,0.5-1.4,0.7-2.1L30.5,46.7C31.2,46.5,31.9,46.3,32.6,46z"/>
<linearGradient id="パス_1009_00000151509520782185194680000017998606825559482303_" gradientUnits="userSpaceOnUse" x1="-1192.384" y1="1745.0239" x2="-1191.384" y2="1745.0239" gradientTransform="matrix(31.8241 0 0 -31.824 37950.4648 55553.3945)">
	<stop  offset="0" style="stop-color:#1D499D"/>
	<stop  offset="0.136" style="stop-color:#1B51A2"/>
	<stop  offset="0.37" style="stop-color:#1C6BA7"/>
	<stop  offset="0.673" style="stop-color:#1996AE"/>
	<stop  offset="1" style="stop-color:#45BAAD"/>
</linearGradient>
<path id="パス_1009" style="fill:url(#パス_1009_00000151509520782185194680000017998606825559482303_);" d="M35.3,3.8L3.9,35.1
	c0.1,0.2,0.2,0.3,0.3,0.5L35.7,4C35.6,4,35.4,3.9,35.3,3.8z"/>
<linearGradient id="パス_1010_00000078023737450562015710000004374506249447130760_" gradientUnits="userSpaceOnUse" x1="-1192.7283" y1="1745.5238" x2="-1191.7283" y2="1745.5238" gradientTransform="matrix(33.151 0 0 -33.151 39549.4453 57891.6016)">
	<stop  offset="0" style="stop-color:#1D499D"/>
	<stop  offset="0.136" style="stop-color:#1B51A2"/>
	<stop  offset="0.37" style="stop-color:#1C6BA7"/>
	<stop  offset="0.673" style="stop-color:#1996AE"/>
	<stop  offset="1" style="stop-color:#45BAAD"/>
</linearGradient>
<path id="パス_1010" style="fill:url(#パス_1010_00000078023737450562015710000004374506249447130760_);" d="M42,9.2L9.3,41.9
	c0.2,0.2,0.3,0.3,0.5,0.4L42.5,9.7C42.3,9.5,42.2,9.3,42,9.2z"/>
<linearGradient id="パス_1011_00000125570570446164759310000011871392326220129182_" gradientUnits="userSpaceOnUse" x1="-1192.6104" y1="1745.3525" x2="-1191.6104" y2="1745.3525" gradientTransform="matrix(32.684 0 0 -32.684 38984.4531 57066.4492)">
	<stop  offset="0" style="stop-color:#1D499D"/>
	<stop  offset="0.136" style="stop-color:#1B51A2"/>
	<stop  offset="0.37" style="stop-color:#1C6BA7"/>
	<stop  offset="0.673" style="stop-color:#1996AE"/>
	<stop  offset="1" style="stop-color:#45BAAD"/>
</linearGradient>
<path id="パス_1011" style="fill:url(#パス_1011_00000125570570446164759310000011871392326220129182_);" d="M37.4,5.1L5.2,37.3
	c0.1,0.2,0.2,0.3,0.3,0.5L37.9,5.4C37.7,5.3,37.6,5.2,37.4,5.1z"/>
</svg>
