<?xml version="1.0" encoding="utf-8"?>
<!-- Generator: Adobe Illustrator 26.0.2, SVG Export Plug-In . SVG Version: 6.00 Build 0)  -->
<svg version="1.1" id="レイヤー_1" xmlns="http://www.w3.org/2000/svg" xmlns:xlink="http://www.w3.org/1999/xlink" x="0px"
	 y="0px" viewBox="0 0 60.9 35.7" style="enable-background:new 0 0 60.9 35.7;" xml:space="preserve">
<style type="text/css">
	.st0{fill:#34B9EC;}
</style>
<g>
	<g id="グループ_146">
		<path id="パス_965" class="st0" d="M41.2,5.6C35.3-0.7,25.4-1.1,19,4.8c-4,3.8-5.8,9.4-4.7,14.7c-1.6,1.1-3.1,2.2-4.5,3.5
			c1.4-1,2.9-2.1,4.6-3.1c0.2,1,0.6,1.9,1,2.8c1.1,2.4,2.8,4.5,4.9,6.1c-6,1.4-10.5,1.3-11.4-0.7c-0.7-1.5,0.8-3.9,3.7-6.4
			c-4.5,3.4-7,6.5-6.2,8.4c1.5,3.3,12.1,1.6,23.8-3.7c2.1-0.9,4.1-1.9,5.9-3c3.2-1.6,6.2-3.4,9.1-5.4c0.3-2.8-0.1-5.7-1.3-8.3
			c-0.1-0.2-0.2-0.5-0.3-0.7c3.7-0.3,6.3,0.3,7,1.8c0.8,1.7-0.9,4.3-4.2,7.3c5.1-3.8,7.9-7.3,6.9-9.5c-0.5-1.1-1.9-1.7-4-1.9
			c-5,0.2-12.1,1.9-19.5,4.7c-5,1.9-9.8,4.2-14.4,7.1c2.9-2.2,6-4.1,9.3-5.7c1.7-0.8,3.5-1.6,5.3-2.3c13.4-5.4,25.5-6.8,27-3.1
			c0.7,1.7-1,4.3-4.4,7.1c5.3-3.6,8.2-7,7.3-9.2C58.7,2.5,51,2.7,41.2,5.6"/>
		<path id="パス_966" class="st0" d="M44.3,18.9c-4.4,3.1-9,5.8-13.9,7.9c-13.2,6-25.2,7.8-26.9,4.1c-0.8-1.7,0.9-4.3,4.2-7.3
			c-5.1,3.8-7.9,7.3-6.9,9.5c1.5,3.3,11.4,2.1,22.9-2.5c8,3.3,17.2-0.5,20.5-8.5c0.6-1.3,0.9-2.7,1.1-4.2
			C45,18.4,44.6,18.7,44.3,18.9L44.3,18.9"/>
		<path id="パス_967" class="st0" d="M12.1,18c0.3-0.1,0.5-0.5,0.3-0.8c-0.1-0.3-0.5-0.5-0.8-0.3c-0.3,0.1-0.5,0.5-0.3,0.8
			c0,0,0,0,0,0C11.4,18,11.8,18.1,12.1,18"/>
		<path id="パス_968" class="st0" d="M5.5,23.1c0.6-0.3,0.9-1,0.6-1.6c-0.3-0.6-1-0.9-1.6-0.6c-0.6,0.3-0.9,1-0.6,1.6
			C4.1,23.1,4.9,23.4,5.5,23.1C5.5,23.1,5.5,23.1,5.5,23.1"/>
		<path id="パス_969" class="st0" d="M47.4,21.1c-0.3,0.1-0.4,0.5-0.3,0.8c0.1,0.3,0.5,0.4,0.8,0.3c0.3-0.1,0.4-0.5,0.3-0.8
			C48,21.1,47.7,21,47.4,21.1L47.4,21.1"/>
		<path id="パス_970" class="st0" d="M53,16.6c-0.9,0.4-1.3,1.5-0.9,2.3c0.4,0.9,1.5,1.3,2.3,0.9c0.9-0.4,1.3-1.5,0.9-2.3l0,0
			C55,16.6,53.9,16.2,53,16.6"/>
		<path id="パス_971" class="st0" d="M44,3.6c0.6-0.3,0.9-1.1,0.6-1.7c-0.3-0.6-1.1-0.9-1.7-0.6c-0.6,0.3-0.9,1.1-0.6,1.7
			C42.6,3.6,43.3,3.9,44,3.6L44,3.6"/>
		<path id="パス_972" class="st0" d="M22.1,33.4c-0.5,0.2-0.8,0.8-0.5,1.4c0.2,0.5,0.8,0.8,1.4,0.5c0.5-0.2,0.8-0.8,0.5-1.4
			C23.2,33.4,22.6,33.1,22.1,33.4L22.1,33.4"/>
	</g>
</g>
</svg>
